<svg width="14" height="14" viewBox="0 0 14 14" fill="none" xmlns="http://www.w3.org/2000/svg">
<g id="Category">
<path id="Fill 1" fill-rule="evenodd" clip-rule="evenodd" d="M3.16665 1.33301C1.33331 1.33301 1.33331 1.47167 1.33331 3.16634V3.18301C1.33331 3.92101 1.33331 4.45434 1.51398 4.67967C1.69065 4.89834 2.21531 4.99967 3.16665 4.99967C4.11798 4.99967 4.64265 4.89767 4.81931 4.67901C4.99998 4.45434 4.99998 3.92101 4.99998 3.18234C4.99998 1.47167 4.99998 1.33301 3.16665 1.33301ZM3.16665 5.99967C2.04265 5.99967 1.19931 5.88167 0.73598 5.30634C0.333313 4.80701 0.333313 4.12567 0.333313 3.18301L0.833313 3.16634H0.333313C0.333313 1.25301 0.45398 0.333008 3.16665 0.333008C5.87931 0.333008 5.99998 1.25301 5.99998 3.16634C5.99998 4.12501 5.99998 4.80701 5.59731 5.30634C5.13398 5.88167 4.29065 5.99967 3.16665 5.99967Z" fill="#5996B1"/>
<path id="Fill 3" fill-rule="evenodd" clip-rule="evenodd" d="M10.5 1.33301C8.66663 1.33301 8.66663 1.47167 8.66663 3.16634V3.18301C8.66663 3.92101 8.66663 4.45434 8.84729 4.67967C9.02396 4.89834 9.54863 4.99967 10.5 4.99967C11.4513 4.99967 11.976 4.89767 12.1526 4.67901C12.3333 4.45434 12.3333 3.92101 12.3333 3.18234C12.3333 1.47167 12.3333 1.33301 10.5 1.33301ZM10.5 5.99967C9.37596 5.99967 8.53263 5.88167 8.06929 5.30634C7.66663 4.80701 7.66663 4.12567 7.66663 3.18301L8.16663 3.16634H7.66663C7.66663 1.25301 7.78729 0.333008 10.5 0.333008C13.2126 0.333008 13.3333 1.25301 13.3333 3.16634C13.3333 4.12501 13.3333 4.80701 12.9306 5.30634C12.4673 5.88167 11.624 5.99967 10.5 5.99967Z" fill="#5996B1"/>
<path id="Fill 5" fill-rule="evenodd" clip-rule="evenodd" d="M3.16665 8.66602C1.33331 8.66602 1.33331 8.80468 1.33331 10.4993V10.516C1.33331 11.254 1.33331 11.7873 1.51398 12.0127C1.69065 12.2313 2.21531 12.3327 3.16665 12.3327C4.11798 12.3327 4.64265 12.2307 4.81931 12.012C4.99998 11.7873 4.99998 11.254 4.99998 10.5153C4.99998 8.80468 4.99998 8.66602 3.16665 8.66602ZM3.16665 13.3327C2.04265 13.3327 1.19931 13.2147 0.73598 12.6393C0.333313 12.14 0.333313 11.4587 0.333313 10.516L0.833313 10.4993H0.333313C0.333313 8.58602 0.45398 7.66602 3.16665 7.66602C5.87931 7.66602 5.99998 8.58602 5.99998 10.4993C5.99998 11.458 5.99998 12.14 5.59731 12.6393C5.13398 13.2147 4.29065 13.3327 3.16665 13.3327Z" fill="#5996B1"/>
<path id="Fill 7" fill-rule="evenodd" clip-rule="evenodd" d="M10.5 8.66602C8.66663 8.66602 8.66663 8.80468 8.66663 10.4993V10.516C8.66663 11.254 8.66663 11.7873 8.84729 12.0127C9.02396 12.2313 9.54863 12.3327 10.5 12.3327C11.4513 12.3327 11.976 12.2307 12.1526 12.012C12.3333 11.7873 12.3333 11.254 12.3333 10.5153C12.3333 8.80468 12.3333 8.66602 10.5 8.66602ZM10.5 13.3327C9.37596 13.3327 8.53263 13.2147 8.06929 12.6393C7.66663 12.14 7.66663 11.4587 7.66663 10.516L8.16663 10.4993H7.66663C7.66663 8.58602 7.78729 7.66602 10.5 7.66602C13.2126 7.66602 13.3333 8.58602 13.3333 10.4993C13.3333 11.458 13.3333 12.14 12.9306 12.6393C12.4673 13.2147 11.624 13.3327 10.5 13.3327Z" fill="#5996B1"/>
</g>
</svg>
